<svg width="64" height="94" viewBox="0 0 64 94" fill="none" xmlns="http://www.w3.org/2000/svg">
<path d="M31.8809 93.5869C41.8255 93.5869 49.5273 90.9209 54.9863 85.5889C60.4876 80.2145 63.2383 72.7031 63.2383 63.0547V0.40332H44.0684V62.8643C44.0684 67.4769 43.0104 70.9893 40.8945 73.4014C38.7786 75.8135 35.7106 77.0195 31.6904 77.0195C29.1937 77.0195 27.0566 76.5117 25.2793 75.4961C23.5443 74.4805 22.1901 73.0628 21.2168 71.2432C20.2858 69.4235 19.7568 67.3288 19.6299 64.959L19.5664 64.5781H0.967773L1.03125 65.1494C1.20052 70.8623 2.53353 75.8558 5.03027 80.1299C7.52702 84.404 11.0394 87.7259 15.5674 90.0957C20.1377 92.4232 25.5755 93.5869 31.8809 93.5869Z" fill="#F1AC06"/>
</svg>
